<?xml version="1.0" encoding="UTF-8" standalone="no"?>
<svg
   sodipodi:docname="scotiacon-logo.svg"
   inkscape:version="1.3 (0e150ed6c4, 2023-07-21)"
   id="svg5"
   version="1.1"
   viewBox="0 0 79.595322 79.414825"
   height="79.414825mm"
   width="79.595322mm"
   xml:space="preserve"
   xmlns:inkscape="http://www.inkscape.org/namespaces/inkscape"
   xmlns:sodipodi="http://sodipodi.sourceforge.net/DTD/sodipodi-0.dtd"
   xmlns="http://www.w3.org/2000/svg"
   xmlns:svg="http://www.w3.org/2000/svg"
   xmlns:rdf="http://www.w3.org/1999/02/22-rdf-syntax-ns#"
   xmlns:cc="http://creativecommons.org/ns#"
   xmlns:dc="http://purl.org/dc/elements/1.1/"><metadata
     id="metadata12"><rdf:RDF><cc:Work
         rdf:about=""><dc:format>image/svg+xml</dc:format><dc:type
           rdf:resource="http://purl.org/dc/dcmitype/StillImage" /></cc:Work></rdf:RDF></metadata><sodipodi:namedview
     inkscape:document-rotation="0"
     inkscape:current-layer="layer1"
     inkscape:window-maximized="0"
     inkscape:window-y="37"
     inkscape:window-x="2302"
     inkscape:window-height="1230"
     inkscape:window-width="1350"
     inkscape:cy="194.12477"
     inkscape:cx="149.91814"
     inkscape:zoom="1.5608518"
     showgrid="false"
     inkscape:document-units="mm"
     inkscape:pagecheckerboard="0"
     inkscape:pageopacity="0.0"
     inkscape:pageshadow="2"
     borderopacity="1.0"
     bordercolor="#666666"
     pagecolor="#ffffff"
     id="namedview7"
     inkscape:showpageshadow="0"
     inkscape:deskcolor="#d1d1d1" /><defs
     id="defs2" /><g
     id="layer1"
     inkscape:groupmode="layer"
     inkscape:label="Layer 1"
     transform="translate(-19.541904,-64.97952)"><g
       inkscape:export-ydpi="230.74001"
       inkscape:export-xdpi="230.74001"
       inkscape:export-filename="D:\Open Broadcast Studio\2022-02-12 - Scotiacon - Price is Right\Graphics\Scotiacon Logo.png"
       style="stroke-width:1;stroke-miterlimit:4;stroke-dasharray:none"
       transform="translate(64.427209,-8.1347486)"
       id="g9252"><g
         inkscape:export-ydpi="300"
         inkscape:export-xdpi="300"
         id="g843"><g
           id="g279"
           transform="translate(112.65179,62.229113)"
           style="fill:#ff0000;fill-opacity:1;stroke-width:1;stroke-miterlimit:4;stroke-dasharray:none"
           inkscape:export-filename="D:\Open Broadcast Studio\2022-02-12 - Scotiacon - Price is Right\Graphics\Logos\Scotiacon Logo.png"
           inkscape:export-xdpi="300"
           inkscape:export-ydpi="300"><circle
             style="fill:#ffffff;fill-opacity:1;stroke-width:1;stroke-miterlimit:4;stroke-dasharray:none"
             id="path1558"
             cx="-117.69221"
             cy="50.623791"
             r="39.606888" /></g><path
           style="fill:#00237b;stroke-width:1;stroke-miterlimit:4;stroke-dasharray:none"
           d="m 4.5225157,150.85988 0.160599,-0.41852 v -0.19712 -0.19712 l 0.79375,0.1165 0.79375,0.1165 -0.0026,-0.49305 -0.0026,-0.49305 -0.9375797,-1.19926 -0.926788,-1.19062 -1.518039,-1.38265 -1.518041,-1.38264 0.750861,-0.006 0.750861,-0.006 -0.185775,-1.12448 -0.185774,-1.12447 -0.03592,-0.0432 -0.03592,-0.0431 -1.992209,-0.79084 -1.99221,-0.79085 -1.12001,-0.30158 -1.12001,-0.30159 0.267948,-0.50067 0.267949,-0.50067 v -0.39537 -0.39537 l -0.415774,-0.41577 -0.415774,-0.41578 h -1.574475 -1.574472 l -2.098169,-1.05493 -2.098167,-1.05494 -0.16646,-0.88731 -0.16646,-0.88731 0.288025,-1.06964 0.288023,-1.06964 0.411086,-0.34117 0.411086,-0.34117 1.108371,-0.0368 1.108369,-0.0368 0.329403,0.24614 0.329406,0.24615 0.635077,-0.41612 0.635077,-0.41612 0.135226,0.51711 0.135228,0.51712 h 0.439299 0.439298 l 0.867217,-0.66146 0.867217,-0.66146 0.371901,0.002 0.371901,0.002 0.764066,0.39847 0.764064,0.39847 0.294269,-0.0551 0.294267,-0.0551 0.555226,0.18927 0.555225,0.18927 0.7784827,-0.39172 0.767692,-0.40035 0.321421,-0.002 0.321418,-0.002 0.265515,-0.49611 0.265515,-0.49612 0.515231,-0.13474 0.515233,-0.13473 0.270053,0.27005 0.270052,0.27005 0.958008,-0.56524 0.958009,-0.56524 h 0.07135 0.07134 l -0.121663,0.82895 -0.121664,0.82894 0.895094,-0.1719 0.895091,-0.17191 0.264583,-0.0293 0.264583,-0.0293 c 5.3342203,3.17756 10.5810733,6.31757 15.9101703,9.50371 -4.438239,5.11784 -11.189323,10.32733 -20.6756254,12.65144 l 0.2392311,-0.54581 z M -42.01993,98.631088 l 2.36903,1.257579 c -0.130133,1.059943 -0.126777,2.121243 -0.126777,3.186373 l -0.762385,-0.38033 -0.762385,-0.38033 c -0.285493,0.10955 -0.570987,0.21911 -0.85648,0.32866 v 0.57549 0.57549 c 2.455055,8.30212 3.034677,14.57092 0.482726,23.00178 l -0.313022,0.38392 c -4.574702,-11.17484 -3.067691,-20.84645 -0.03071,-28.548632 z m 58.730795,15.017322 -0.0776,-0.0744 -0.0776,-0.0744 c 5.619651,-3.39784 11.266407,-6.67364 16.878293,-10.0843 1.506568,4.49924 1.993481,13.42481 -0.29865,20.09583 -5.463323,-3.27692 -10.961139,-6.58578 -16.424443,-9.86273 z m -17.799542,-10.67944 -0.597622,-0.41859 0.451897,-0.765 0.451898,-0.76501 -0.439677,-0.48584 -0.439676,-0.48583 0.896083,0.10461 0.896083,0.10461 v -1.215008 -1.21501 l -0.308679,-0.19672 -0.308682,-0.196721 1.190625,-0.171455 1.190625,-0.171456 0.251355,0.233896 0.251354,0.233897 H 3.005448 3.61399 V 96.626338 95.693334 L 2.486608,94.575817 C -2.421971,90.018241 -10.3247,90.606707 -16.515211,91.380768 l 0.176268,-0.416442 0.176268,-0.416442 c 0.793197,-5.098896 0.463634,-8.215912 -2.19126,-12.303125 -0.548052,-0.318178 -1.045195,-0.305451 -1.567793,0 -1.02372,2.45803 -1.314478,4.579149 -2.463556,6.119978 l -1.046865,-1.93551 -1.046865,-1.935509 c -0.445059,-0.450027 -0.762972,-0.97614 -1.091189,-1.509722 18.3954816,-11.526389 41.0337,-4.745383 51.213942,8.816769 l -0.527284,0.36179 -0.46809,0.317427 C 16.491809,93.363504 8.335256,98.247032 0.178703,103.13056 l -0.334877,0.1285 -0.334881,0.12851 z M -32.442553,84.240156 c 0.854184,-0.83049 1.979792,-1.808201 3.036584,-2.631477 0.05872,0.176148 0.189525,0.406226 0.248239,0.582377 l -1.16585,3.197452 z"
           id="path391"
           sodipodi:nodetypes="cccccccccccccccccccccccccccccccccccccccccccccccccccccccccccccccccccccccccccccccccccccccccccccccccccccccccccccccccccccccccccccccccccccccccccccc"
           inkscape:export-filename="D:\Open Broadcast Studio\2022-02-12 - Scotiacon - Price is Right\Graphics\Logos\Scotiacon Logo.png"
           inkscape:export-xdpi="300"
           inkscape:export-ydpi="300" /><path
           style="fill:#010101;stroke-width:1;stroke-miterlimit:4;stroke-dasharray:none"
           d="m -41.54096,128.27935 c 3.607447,-8.56299 2.625021,-15.98448 0.13198,-24.34433 l -0.152014,-0.72238 0.341034,-0.22934 0.657853,0.66146 0.657853,0.66146 0.562279,0.78149 0.562279,0.78148 c -0.444395,-2.9221 -0.144794,-5.67741 0.367705,-8.545184 l 0.404091,-0.335366 0.404091,-0.335366 0.384673,0.51918 0.384675,0.519179 0.148935,0.727605 0.148936,0.727604 h 0.231511 0.23151 l 0.0045,-0.33073 c 0.0015,-0.110243 -0.01735,-0.222662 0.0045,-0.330729 0.150983,-0.746795 0.572797,-1.412055 0.859196,-2.118083 0.286399,-0.706028 0.506924,-1.442507 0.859196,-2.118084 2.06242,-3.955245 4.691447,-7.480172 5.899845,-11.638833 0.19515,-0.671601 0.23782,-1.278741 0.367818,-1.98086 0.54363,-0.387423 1.145726,-0.802867 1.753669,-1.178596 l 0.453489,0.549166 0.383331,0.493624 0.902175,1.455208 0.902174,1.455208 0.445099,1.190625 0.445099,1.190625 1.591956,3.175 1.591956,3.175 0.604265,0.645105 1.453936,-0.37411 c 5.533561,-1.209506 14.9381387,-1.705843 19.466436,2.677894 0.6436021,0.623056 0.905208,0.854033 0.905208,1.649938 C 1.9441442,96.117751 1.1715343,95.974595 0.143216,95.971902 l 0.327041,0.529166 c -0.99272631,-0.0895 -1.9376908,0.129939 -2.903196,0.323039 l 0.708379,0.627862 0.70838,0.627861 -1.310572,-0.382803 c -0.5450019,-0.159189 -1.52518,-0.168192 -1.52518,-0.168192 l 1.35173,0.831728 1.35173,0.831728 c -0.746357,-0.297159 -0.9949991,-0.23697 -1.424788,-0.280009 -0.5812338,-0.0582 -1.0626806,-0.0475 -1.660298,-0.03968 l 1.078647,0.946812 1.03627,0.915026 c 0,0 -1.0908621,-0.33109 -1.609519,-0.52822 l -1.389062,-0.527955 c 0,0 0.5828896,0.762335 1.046985,1.049165 l 1.046986,0.64707 c 0,0 -1.0331529,-0.10979 -1.442688,-0.23304 l -1.288049,-0.38765 -0.110729,0.11073 -0.11073,0.11073 c 0.7794855,1.9581 1.9928984,3.06483 3.636351,4.25372 4.552937,-0.668 9.3600607,-0.40215 13.809551,-1.72952 1.524886,-0.49266 2.216878,2.32247 2.45005,3.1658 -0.141154,2.10801 -0.658813,4.05613 -1.37239,6.02248 -0.684977,-0.66885 -1.369948,-1.33771 -2.054919,-2.00657 v -1.49671 c 0,-0.29609 -0.628363,-0.5357 -0.829318,-0.31824 -0.2086352,0.22577 -0.4172629,0.45154 -0.625891,0.67731 0.6195509,-0.36515 1.231983,-0.52376 1.240412,0.0101 0.01142,0.35102 -0.01887,0.68488 0.03045,1.03188 L 9.756957,110.29013 9.205065,109.99476 H 8.806349 l 1.616895,1.20154 c 0.754866,0.59846 1.558038,1.37947 2.16957,2.18281 2.672306,4.24213 3.199599,10.09278 -1.39473,13.14337 l 0.34332,-2.5048 h -0.20702 c -0.993523,1.68604 -1.9993319,3.31815 -3.314681,4.7625 H 7.785627 7.55155 l 0.152593,-0.2469 0.152596,-0.24691 c 0.1504934,-0.80554 0.3009826,-1.61107 0.451472,-2.41661 H 7.939565 l -0.641435,0.6866 -0.641432,0.6866 -0.780362,0.40581 -0.780362,0.40581 0.449633,-0.68622 0.449633,-0.68623 v -0.32767 l -1.070533,0.84788 -1.070536,0.84788 -0.154879,-0.15487 -0.154879,-0.15488 -0.494377,0.26458 -0.494379,0.26458 -0.0094,-0.34004 -0.0094,-0.34003 -0.378124,0.66145 -0.378124,0.66146 -0.01778,-0.39687 -0.01778,-0.39688 -0.388509,0.51366 -0.388511,0.51366 -0.396825,0.0582 -0.396825,0.0582 -0.0019,-0.70419 -0.0019,-0.70419 -0.525679,0.79375 -0.52568,0.79375 -0.0019,-0.59531 -0.0015,-0.59532 -0.330729,-0.002 -0.330729,-0.002 -0.595313,-1.04257 -0.595312,-1.04257 v -0.16163 -0.16164 l 0.330729,0.19057 0.330729,0.19058 -0.567534,-0.63798 -0.567531,-0.63798 -0.555958,-0.92604 -0.555956,-0.92604 -0.0011,-0.91281 -0.0011,-0.91282 -0.301283,0.30129 -0.301287,0.30128 0.417214,1.2673 0.417211,1.26731 -0.0986,0.0986 -0.09861,0.0986 -0.863151,-1.68042 -0.86315,-1.68041 0.0084,-1.98438 0.0084,-1.98437 0.565496,-1.09947 0.565497,-1.09947 0.704522,-0.55418 0.704522,-0.55418 h -0.201912 -0.201914 l -1.421267,0.81317 -1.421271,0.81317 v -0.16225 -0.16225 c 0.698029,-2.10195 2.9157809,-3.85754 6.082311,-4.77806 0.47675721,-0.0152 0.62854457,0.0705 1.127707,0.35792 -0.26291003,-0.48023 -0.89270606,-0.60908 -1.36625664,-0.83527 1.03220092,0.16211 2.01546914,0.22049 3.01978064,-0.009 1.4542632,-0.3323 1.7998236,-0.63546 3.000695,-0.92996 -0.079415,-0.0794 -0.03556,-0.0356 -0.114969,-0.11497 -0.8576504,0.25811 -1.6974025,0.58566 -2.572951,0.77434 -1.4186694,0.30573 -2.50548453,0.15688 -4.027162,0.0448 l 0.76740602,0.51746 c -3.02804912,0.76309 -5.76735122,2.97906 -6.06116902,4.79554 l -0.177081,0.7276 h 0.409943 0.409945 l 0.163521,-0.26458 0.16352,-0.26459 h 0.208312 0.208312 l -0.479872,1.38907 -0.479873,1.38906 -0.0086,1.08243 -0.0086,1.08243 0.378708,1.25835 0.378709,1.25835 0.699445,1.05694 0.699444,1.05693 0.135374,-0.13538 0.135374,-0.13537 0.920163,1.73449 0.920165,1.73449 -0.281606,0.2816 -0.281488,0.28177 v -0.21003 -0.21003 l -1.361043,0.97781 -1.361041,0.97782 0.182775,-1.14302 0.182776,-1.14301 -0.607671,0.54753 -0.607671,0.54754 -0.396875,0.22757 -0.396875,0.22756 0.439978,-0.67289 0.439979,-0.6729 -0.19276,-0.31189 -0.19276,-0.31189 -0.644093,0.68858 -0.644094,0.68859 -0.457065,0.24641 -0.457068,0.24641 0.166458,-0.43378 0.166454,-0.43377 -0.589312,0.31539 -0.589314,0.31539 0.310303,-0.57981 0.310304,-0.57981 -0.229246,0.0968 -0.229243,0.0968 -1.238776,1.33659 -1.238774,1.33658 -0.284501,1.2695 -0.284502,1.2695 0.169413,0.90305 0.169413,0.90305 0.697521,0.4955 0.697518,0.49549 1.01123,0.4216 1.011229,0.42159 -0.148357,0.24005 -0.14836,0.24005 0.592339,0.15876 0.592336,0.15876 1.918229,0.004 1.918229,0.004 v 0.53305 0.53306 l -0.845039,0.5139 -0.845042,0.5139 0.382021,0.12743 0.382019,0.12743 1.984375,0.52832 1.984375,0.52832 0.926041,0.4036 0.926042,0.40361 -0.529167,0.0148 -0.529166,0.0148 0.870987,0.55772 0.870987,0.55771 -0.08466,0.0847 -0.08467,0.0847 -0.984758,-0.2221 -0.98476,-0.2221 v 0.17758 0.17758 l 2.801995,2.7252 2.801999,2.7252 -0.140931,0.14093 -0.14093,0.14093 -0.808982,-0.57604 -0.808985,-0.57605 v 0.22968 0.22968 l 0.246624,0.25136 0.246623,0.25135 0.08411,0.79375 0.08411,0.79375 -0.640789,-0.0711 -0.64079,-0.0711 0.489017,0.54036 0.489016,0.54036 -0.245102,0.22606 -0.2312547,0.16088 C -15.966643,155.62743 -34.497951,145.58126 -41.54096,128.27935 Z m 17.922338,-4.43514 -0.547956,-1.01716 0.139686,0.79375 0.139686,0.79375 -0.644619,-1.32291 -0.644619,-1.32292 -0.295663,-0.66146 -0.295664,-0.66146 0.141781,0.90789 0.141781,0.90789 0.67338,1.14903 0.67338,1.14904 0.221954,-0.13717 0.221953,-0.13718 0.166244,0.43323 0.166244,0.43322 0.145193,-0.14519 0.145194,-0.1452 z m -3.351005,-2.27393 -1.183948,-1.91823 -0.536499,-1.71979 -0.5365,-1.71979 0.172472,-1.17685 0.172472,-1.17685 -0.42094,0.34935 -0.42094,0.34935 v -0.39235 -0.39235 l 0.653485,-0.96296 0.653484,-0.96296 h -0.841976 -0.841976 l 1.303025,-1.32292 1.303024,-1.32292 h -0.180452 -0.180452 l -1.463248,1.36188 -1.463247,1.36187 v 0.25566 0.25565 l 0.737669,-0.10826 0.73767,-0.10827 -0.473087,0.92793 -0.473086,0.92793 v 0.63382 0.63382 l 0.362094,-0.13894 0.362093,-0.13895 0.148038,1.43434 0.148037,1.43435 0.678943,1.483 0.678943,1.48301 0.950127,1.29433 0.950127,1.29433 h 0.0943 0.0943 z m 35.290959,-12.11973 -0.45203,-0.26353 c -0.2232644,-0.13016 0.3771009,-2.30264 0.4916569,-3.2933 -0.1635466,0.25615 -0.2434036,0.46447 -0.4069532,0.72062 -0.1152763,0.83815 -0.3022878,1.72413 -0.4175627,2.56229 0.1140423,0.18451 0.844271,0.61333 0.844271,0.61333 0,0 0.2032541,0.0239 0.392656,-0.0758 l -0.452033,-0.26353 z m -20.251613,-2.27405 1.785938,-0.16867 c -0.366737,-0.39866 -0.442128,-1.24522 -0.09972,-1.65204 -1.39411,-0.40391 -3.067586,-0.38811 -4.604153,-0.38811 -0.534308,0.20322 -1.154683,0.47003 -1.222592,0.99 -0.0718,0.54976 0.994268,1.21275 1.440752,1.39125 1.082336,0.0433 1.62378,-0.071 2.699779,-0.17266 z m 4.034894,-1.49332 c -0.210572,-0.17136 -0.3932716,-0.21017 -0.7437811,-0.26194 -0.1753124,-0.0259 -0.6136729,-0.007 -0.7781997,0.0506 0.4389704,0.28325 1.0391263,0.92587 0.6657116,1.41512 0.280633,0 0.7447312,-0.0672 1.0253642,-0.0672 -0.056361,-0.37886 -0.1127284,-0.75772 -0.169095,-1.13658 z m -17.7923,-6.139463 c -0.516899,-5.812476 -1.76024,-9.390062 -0.311929,-14.022917 l 0.132126,-0.529167 0.132126,-0.529166 -0.404886,0.708318 c -1.816881,4.375182 -0.198433,10.165748 0.04115,14.081196 0.09988,1.632309 -0.502824,2.187639 -1.140514,3.202159 l -0.66523,1.05833 0.797528,-0.84953 c 0.540953,-0.61118 1.525533,-1.9284 1.419634,-3.119223 z m 14.988973,3.109843 0.636257,-0.39757 -0.161679,0.42133 -0.161679,0.42133 0.239667,0.14812 0.239668,0.14813 0.590502,-0.7987 0.590502,-0.7987 0.48119,0.43547 0.481193,0.43547 v -1.28039 c 0,0 0.1381682,-0.87658 0,-1.28039 -0.4513127,-1.319015 -1.7618416,-3.284155 -2.90983,-3.342068 1.6210884,2.07999 2.645246,2.698257 2.645246,5.045698 l -0.531667,-0.28454 -0.531667,-0.28453 -0.303725,0.73825 -0.303726,0.73825 -0.110048,-0.46302 -0.110051,-0.46302 h -0.05695 -0.05695 l -1.037929,0.52917 c -1.791425,1.12633 -3.542631,-0.18314 -5.450044,-0.51548 -0.660753,-0.11513 -1.305526,0.30821 -1.958289,0.46232 0.834278,0.0177 1.703319,-0.18578 2.502834,0.0532 1.82738,0.54621 3.533558,1.42126 5.277175,0.33167 z m -5.209265,-3.879527 1.662594,-0.178601 1.273911,-0.41271 1.273913,-0.412711 -0.100812,-0.10081 -0.100809,-0.10081 -0.908518,0.281834 -0.908518,0.281834 -1.925492,0.208375 -1.925492,0.208374 -0.477907,0.432499 -0.477906,0.432499 -0.867405,1.255584 -0.867406,1.25558 1.343628,-1.48617 1.343628,-1.486166 z m -7.448959,-0.0657 1.207198,-0.862821 1.438636,-0.669669 1.438636,-0.669669 0.749652,-0.0026 0.749654,-0.0026 -0.10909,-0.330729 -0.109088,-0.330729 -0.640564,-0.339881 -0.640564,-0.339882 -0.859896,0.12481 -0.859896,0.124809 v -0.09408 -0.09408 l 0.92769,-0.573344 0.92769,-0.573344 -0.149555,-0.241985 -0.149555,-0.241985 h -0.756495 -0.756496 l -0.418515,0.160599 -0.418514,0.160599 v 0.268673 0.268672 l 0.380875,-0.316098 0.380875,-0.316098 0.743604,0.08526 0.743604,0.08526 -1.11883,0.79375 -1.118829,0.79375 -0.0056,0.149174 -0.0057,0.149175 1.55374,-0.112387 1.553741,-0.112388 0.180577,0.292181 0.180577,0.29218 -0.609838,-0.04577 -0.609839,-0.04577 -1.043421,0.34954 -1.04342,0.349541 -0.279496,0.225047 -0.279496,0.225048 -1.521354,1.20727 -1.521354,1.207269 v 0.133371 0.133368 l 0.330729,-0.200331 0.330729,-0.200332 z m 1.753312,-6.374516 -0.121,-0.463021 v 0.926042 0.926041 l 0.121,-0.463021 0.121,-0.46302 z m -0.837543,-0.992188 0.182791,-0.529166 0.217587,0.529166 0.217588,0.529167 0.0186,-0.30909 0.01859,-0.309089 -0.160599,-0.418515 -0.160599,-0.418514 h -0.210393 -0.210393 l -0.290466,0.833232 -0.290467,0.833232 0.01791,0.423538 0.01791,0.423539 0.224576,-0.529166 0.224576,-0.529167 z m -1.300493,-1.79331 -0.674376,-1.117106 -0.560029,-0.661459 -0.560029,-0.661458 0.204301,0.396875 0.204301,0.396875 0.876992,1.28646 0.876992,1.286461 0.03069,0.565623 0.03069,0.565623 0.12242,-0.470394 0.12242,-0.470394 z m 3.082968,-0.603177 -1.650809,-3.059673 c 1.225124,-2.087743 1.831804,-4.427977 2.575558,-6.714673 0.263879,-0.322503 0.718664,-0.415917 1.097087,-0.1657 1.311924,1.99629 2.017895,4.173124 2.175741,6.508917 0.125735,1.86061 -0.395348,3.708695 -0.593021,5.563042 l -0.63083,0.626637 -1.322917,0.301132 z"
           id="path389"
           sodipodi:nodetypes="cccccccccccccccccsssssccccccccccccsccccscscscscccccccsccccccccccccccccccccccccccccccccccccccccccccccccccccccccccccccccccccccccccccccccccccccccccccccsccsccccccccccccccccccccccccccccccccccccccccccccccccccccccccccccccccccccccccccccccccccccccccccccccccccccccccccccccccccccccccccccccccccccccccccccccccccccccccccccccccccccscccccccccccsccccscccccccccscccsccccccccccccscccccccccccscsccccccccccccccccccccccccccccccccccccccccccccccccccccccccccccccccccccccccccccccccccccccccccccccccccccccccccccccccc"
           inkscape:export-filename="D:\Open Broadcast Studio\2022-02-12 - Scotiacon - Price is Right\Graphics\Logos\Scotiacon Logo.png"
           inkscape:export-xdpi="300"
           inkscape:export-ydpi="300" /></g></g></g></svg>
